<mxfile host="app.diagrams.net" agent="Mozilla/5.0 (Windows NT 10.0; Win64; x64) AppleWebKit/537.36 (KHTML, like Gecko) Chrome/134.0.0.0 Safari/537.36 Edg/134.0.0.0" version="26.1.3">
  <diagram name="第 1 页" id="yi9OA9lnH09E1v24cTXk">
    <mxGraphModel dx="1379" dy="752" grid="1" gridSize="10" guides="1" tooltips="1" connect="1" arrows="1" fold="1" page="1" pageScale="1" pageWidth="827" pageHeight="1169" math="0" shadow="0">
      <root>
        <mxCell id="0" />
        <mxCell id="1" parent="0" />
        <mxCell id="atVHLsAldeP8B9soYnr1-2" style="edgeStyle=orthogonalEdgeStyle;rounded=1;orthogonalLoop=1;jettySize=auto;html=1;entryX=0;entryY=0.5;entryDx=0;entryDy=0;curved=0;shadow=1;" edge="1" parent="1" source="rh2-HIITxtahfnw7uAZp-1" target="atVHLsAldeP8B9soYnr1-1">
          <mxGeometry relative="1" as="geometry" />
        </mxCell>
        <mxCell id="rh2-HIITxtahfnw7uAZp-1" value="" style="rounded=1;whiteSpace=wrap;html=1;shadow=1;" parent="1" vertex="1">
          <mxGeometry x="150" y="110" width="110" height="60" as="geometry" />
        </mxCell>
        <mxCell id="atVHLsAldeP8B9soYnr1-1" value="" style="rounded=1;whiteSpace=wrap;html=1;shadow=1;" vertex="1" parent="1">
          <mxGeometry x="490" y="110" width="120" height="60" as="geometry" />
        </mxCell>
        <mxCell id="atVHLsAldeP8B9soYnr1-3" value="" style="shape=cylinder3;whiteSpace=wrap;html=1;boundedLbl=1;backgroundOutline=1;size=15;shadow=1;" vertex="1" parent="1">
          <mxGeometry x="240" y="280" width="60" height="80" as="geometry" />
        </mxCell>
        <mxCell id="atVHLsAldeP8B9soYnr1-4" value="" style="strokeWidth=2;html=1;shape=mxgraph.flowchart.sequential_data;whiteSpace=wrap;shadow=1;" vertex="1" parent="1">
          <mxGeometry x="700" y="90" width="100" height="100" as="geometry" />
        </mxCell>
        <mxCell id="atVHLsAldeP8B9soYnr1-5" style="edgeStyle=orthogonalEdgeStyle;rounded=1;orthogonalLoop=1;jettySize=auto;html=1;entryX=0;entryY=0.5;entryDx=0;entryDy=0;entryPerimeter=0;curved=0;shadow=1;" edge="1" parent="1" source="atVHLsAldeP8B9soYnr1-1" target="atVHLsAldeP8B9soYnr1-4">
          <mxGeometry relative="1" as="geometry" />
        </mxCell>
      </root>
    </mxGraphModel>
  </diagram>
</mxfile>
